<svg width="40" height="40" viewBox="0 0 40 40" fill="none" xmlns="http://www.w3.org/2000/svg">
<mask id="mask0_35_3818" style="mask-type:luminance" maskUnits="userSpaceOnUse" x="0" y="0" width="40" height="35">
<path d="M40 0H0V34.7766H40V0Z" fill="white"/>
</mask>
<g mask="url(#mask0_35_3818)">
<path d="M16.0523 10.0991C15.1253 10.9556 14.2287 11.7435 13.3819 12.5764C11.7446 14.1843 9.81153 15.456 7.95475 16.8231C5.24072 18.8447 2.78574 21.147 0.637911 23.6854C0.442613 22.4349 0.167225 21.2964 0.106152 20.1462C0.00906278 18.3202 -0.0520128 16.4822 0.0652105 14.6585C0.213082 12.3593 1.65153 10.7443 3.73784 9.60828C5.35727 8.72703 7.13866 8.33537 9.00819 8.25995C10.9715 8.17829 12.9356 8.40162 14.8192 8.92058C9.30774 9.94453 4.97472 12.4595 1.71797 16.5624C5.93108 13.3974 10.6149 11.1231 16.0523 10.0991Z" fill="#E41A23"/>
<path d="M4.15087 7.95572C3.92761 8.0526 3.71084 8.16113 3.40234 8.30968C4.35736 6.14509 5.63652 4.37781 8.06309 3.60635C10.0753 2.96697 12.0328 3.26906 13.9444 4.0051C15.8788 4.74947 17.613 5.80406 19.2758 6.96843C19.3168 7.00718 19.3519 7.05093 19.3805 7.09822C18.7033 7.55468 18.0376 8.01843 17.3504 8.45364C17.2228 8.5303 17.0023 8.52197 16.8403 8.48906C14.7643 8.05843 12.71 7.50509 10.6123 7.2078C8.41767 6.89301 6.21548 7.05802 4.15087 7.95572Z" fill="#E41A23"/>
<path d="M20.4871 6.32541C17.8435 4.49916 15.0738 2.79229 11.6499 2.0125C12.4904 1.63021 13.2989 1.15833 14.1774 0.881252C15.9185 0.318752 17.7464 0.0210417 19.5904 0H19.6059C20.2808 0.00708333 20.9468 0.0433325 21.604 0.108541L21.6792 0.116876C24.0167 0.396459 26.293 1.17854 28.5028 2.42771C29.4119 2.94333 30.2497 3.56604 31.1884 4.18437C30.2141 4.08166 29.3623 3.88583 28.5231 3.92833C27.3232 3.98854 26.1297 4.20312 24.9411 4.39312C24.6364 4.44271 24.412 4.45916 24.1391 4.28937C22.3606 3.1902 20.3685 2.42062 18.2732 2.02312C18.2204 2.02166 18.1677 2.02667 18.1164 2.03854L22.9239 5.12208L20.4871 6.32541Z" fill="#E41A23"/>
<path d="M34.5488 30.6418C34.7049 30.9885 34.7913 31.3587 34.8038 31.7341C33.9846 32.587 33.0851 33.3706 32.1158 34.0758C32.2319 33.5014 32.2929 32.9175 32.4345 32.35C32.5327 31.9641 32.4115 31.6775 32.1692 31.3933C29.9619 28.7981 27.7776 26.191 25.5459 23.6181C23.8372 21.6481 22.0699 19.7252 20.3037 17.7491L22.6486 15.22C22.8949 15.476 23.118 15.7012 23.3323 15.9337C25.6785 18.4806 28.0809 20.985 30.3458 23.5885C32.0189 25.5091 33.3857 27.6289 34.2989 29.9683C34.3958 30.1912 34.4609 30.4235 34.5488 30.6418Z" fill="#E41A23"/>
<path d="M35.8036 8.06548C34.5157 6.18735 32.6399 5.26736 30.2668 5.13757C27.8937 5.00777 25.6965 5.52215 23.5721 6.4186C19.4915 8.14089 15.9208 10.5605 12.7406 13.4649C9.03241 16.8517 5.61862 20.4886 2.28401 24.1915C1.31245 25.2709 1.3073 25.2863 1.714 26.6192C2.36433 28.7428 3.40882 30.6867 4.72736 32.4988C5.62622 33.3409 6.60808 34.1034 7.66018 34.7767C7.45616 34.0548 7.34274 33.3044 7.14252 32.579C6.9819 32.0009 7.10673 31.5573 7.51231 31.0738C10.648 27.3294 13.72 23.538 16.8772 19.808C19.1906 17.0742 21.5605 14.3821 23.9878 11.7319C25.337 10.2596 26.9092 8.98444 28.7812 8.07485C30.1711 7.39652 31.6491 7.13111 33.1896 7.40257C34.0936 7.56298 34.9645 7.87443 35.8112 8.11027C35.8128 8.11548 35.8153 8.12027 35.8188 8.12444C35.8179 8.10402 35.8128 8.08402 35.8036 8.06548ZM6.12621 26.6253C9.55142 19.5661 14.9951 14.0594 21.5816 9.43027C15.5423 14.4265 10.3344 20.2207 6.12621 26.6253Z" fill="#E41A23"/>
<path d="M40.0014 19.0751C40.0079 22.7634 38.8526 26.3736 36.6771 29.4645C36.252 30.0695 35.7901 30.6516 35.2934 31.208C34.8702 27.3151 32.7432 24.1949 30.1774 21.2988C28.5274 19.4336 26.7471 17.6653 25.1366 15.9714L34.0706 20.6901L34.1675 20.5497L23.6868 13.9789L25.3892 12.6141C28.9072 15.0914 32.6143 17.4318 37.4026 17.5191C33.3769 16.1436 29.6164 14.3341 26.2167 11.7859C27.4115 10.6228 28.7072 9.68386 30.4387 9.52094C33.4904 9.23323 36.1236 10.0826 38.252 12.1728C38.5929 12.5078 38.8641 12.898 39.0515 13.3243C39.1636 13.6509 39.2645 13.9814 39.3576 14.3151C39.7873 15.8705 40.0038 17.4697 40.0014 19.0751Z" fill="#E41A23"/>
</g>
<mask id="mask1_35_3818" style="mask-type:luminance" maskUnits="userSpaceOnUse" x="9" y="24" width="22" height="16">
<path d="M30.5538 24.7423H9.44678V40H30.5538V24.7423Z" fill="white"/>
</mask>
<g mask="url(#mask1_35_3818)">
<path d="M14.3218 30.8673C17.0612 30.8823 19.1897 32.9123 19.1414 35.5189C19.0985 37.8435 17.0969 39.9716 14.3277 39.9841C11.5584 39.9964 9.40294 37.9335 9.44745 35.3245C9.48906 32.8704 11.6955 30.8379 14.3218 30.8673ZM14.3004 32.8285C13.9313 32.8268 13.5657 32.8931 13.2241 33.0231C12.8825 33.1533 12.572 33.3448 12.3098 33.5871C12.0478 33.8291 11.8396 34.1168 11.6969 34.4341C11.5541 34.7512 11.4801 35.0914 11.4785 35.4354C11.4731 36.846 12.7322 38.0114 14.2554 38.0312C15.8129 38.0518 17.0878 36.9158 17.1008 35.4531C17.1137 34.0141 15.8623 32.8095 14.3004 32.8285Z" fill="#E41A23"/>
<path d="M26.2474 39.9993C24.3161 40.0347 22.5383 38.5868 22.517 36.5716C22.4976 34.707 24.1801 33.1491 26.2588 33.1674C28.3216 33.1857 29.9721 34.7084 29.9656 36.618C29.9573 38.4939 28.2176 40.0378 26.2474 39.9993ZM26.2603 38.3795C27.3346 38.3795 28.2084 37.5745 28.2095 36.5818C28.2095 35.577 27.3357 34.7501 26.2697 34.7495C25.1416 34.7495 24.2895 35.5305 24.2789 36.5613C24.2675 37.4801 25.1713 38.427 26.2583 38.3795H26.2603Z" fill="#E41A23"/>
<path d="M18.9433 30.573L18.4245 31.1877C17.8199 30.604 17.0879 30.1482 16.2778 29.8513C15.4665 29.5557 14.6231 29.4359 13.7144 29.4713C14.1732 28.165 14.6226 26.8865 15.0819 25.5763C14.734 25.5763 14.419 25.565 14.1056 25.5807C13.9092 25.5902 13.8074 25.5267 13.7452 25.3546C13.6734 25.1561 13.5732 24.9652 13.4766 24.7527C13.5582 24.7471 13.613 24.7396 13.6665 24.7396C16.0846 24.7396 18.5031 24.7413 20.9223 24.7442C21.4243 24.7442 21.8285 24.9369 22.0864 25.3544C22.1227 25.4223 22.1549 25.4919 22.1826 25.5634H20.5473C20.5688 25.8221 20.5851 26.0655 20.6102 26.3069C20.6791 26.9694 20.7543 27.6311 20.8211 28.2936C20.8941 29.0152 20.9708 29.7365 21.027 30.4592C21.0992 31.3879 21.1516 32.3182 21.2169 33.2477C21.2256 33.3779 21.1672 33.4123 21.0404 33.405C20.9012 33.394 20.7614 33.394 20.6225 33.405C20.4605 33.4209 20.4326 33.3423 20.4218 33.22C20.3238 32.1884 20.2216 31.1565 20.1218 30.1246C20.0429 29.3102 19.9668 28.494 19.8863 27.6794C19.8225 27.0346 19.754 26.39 19.686 25.7452C19.6807 25.6936 19.6655 25.643 19.6529 25.5832C19.5907 25.5802 19.5348 25.5757 19.4791 25.5752C18.3968 25.5752 17.3138 25.5777 16.2318 25.5705C16.0624 25.5705 15.996 25.6217 15.9465 25.7715C15.6472 26.6769 15.3349 27.5773 15.0275 28.4817C15.0056 28.5471 14.9897 28.6152 14.9723 28.6852C16.5369 28.8911 17.8787 29.4605 18.9433 30.573Z" fill="#E41A23"/>
<path d="M22.0962 33.4013V31.9229C22.1597 31.9175 22.2201 31.9077 22.2805 31.9077C24.1856 31.9077 26.0905 31.9094 27.9952 31.9127C28.2612 31.9127 28.5271 31.926 28.7929 31.9127C29.0833 31.8977 29.3249 31.9873 29.4913 32.1977C29.664 32.415 29.8837 32.4548 30.151 32.4488C30.645 32.4371 30.5385 32.425 30.551 32.8067C30.5575 32.9994 30.551 33.1923 30.551 33.4023C30.1609 33.4023 29.7958 33.4058 29.4309 33.3979C29.3784 33.3979 29.3227 33.3442 29.2761 33.3071C28.5828 32.751 27.7878 32.3971 26.8806 32.284C25.5892 32.1233 24.385 32.37 23.37 33.1392C22.9586 33.4515 22.5517 33.3867 22.0962 33.4013Z" fill="#E41A23"/>
<path d="M22.0952 31.0529V30.2385C22.1455 30.2314 22.1963 30.2271 22.2471 30.225C24.5365 30.2266 26.826 30.2283 29.1156 30.23C29.6353 30.23 30.0058 30.4512 30.2621 30.8587C30.2964 30.9219 30.327 30.9866 30.3541 31.0529H22.0952Z" fill="#E41A23"/>
<path d="M23.7645 27.3716H25.1001V29.366C24.6717 29.366 24.25 29.3682 23.8283 29.3614C23.7968 29.3614 23.7397 29.2932 23.7395 29.2551C23.7343 28.6368 23.7363 28.0183 23.7395 27.3997C23.7379 27.3922 23.7533 27.3832 23.7645 27.3716Z" fill="#E41A23"/>
<path d="M24.033 26.8635C24.033 26.4444 24.007 26.0492 24.0455 25.6598C24.0609 25.5004 24.1974 25.341 24.3113 25.2029C24.4394 25.0454 24.6005 24.9108 24.7634 24.75L25.1927 25.1802C25.1835 25.2115 25.1846 25.2267 25.1768 25.2331C24.7634 25.5702 24.7486 26.0121 24.7766 26.4773C24.8003 26.8715 24.7824 26.8721 24.3656 26.8669C24.26 26.8623 24.1549 26.8635 24.033 26.8635Z" fill="#E41A23"/>
<path d="M21.545 36.0714C21.4808 36.3191 21.4309 36.5316 21.3676 36.7385C21.3526 36.7862 21.2855 36.8535 21.2405 36.8543C20.8327 36.8635 20.4242 36.8595 19.9768 36.8595C20.0667 36.5962 20.1408 36.3685 20.2249 36.1439C20.2356 36.125 20.2508 36.1087 20.2696 36.0964C20.2884 36.0841 20.3099 36.0762 20.3327 36.0731C20.7289 36.0695 21.1256 36.0714 21.545 36.0714Z" fill="#E41A23"/>
<path d="M20.1377 34.3123H21.1395C21.1057 34.4162 21.0784 34.5081 21.046 34.5983C21.0202 34.6691 20.9887 34.74 20.9594 34.8108C20.8124 35.1681 20.7721 35.1921 20.3558 35.1329C20.3287 35.126 20.3041 35.1131 20.2838 35.0954C20.2632 35.0777 20.2478 35.0556 20.2384 35.031C20.1976 34.8016 20.1719 34.5685 20.1377 34.3123Z" fill="#E41A23"/>
<path d="M27.147 36.5497H25.3354C25.3151 36.1585 25.7227 35.7764 26.1679 35.7583C26.6952 35.737 27.1244 36.0795 27.147 36.5497Z" fill="#E41A23"/>
</g>
</svg>
