<svg width="22" height="22" viewBox="0 0 22 22" fill="none" xmlns="http://www.w3.org/2000/svg">
<path d="M13.75 20.9688C13.75 21.377 13.5094 21.7465 13.1398 21.9098C12.7703 22.073 12.332 22.0086 12.0312 21.7336L8.59375 18.6398C8.37461 18.4422 8.2543 18.1672 8.2543 17.875C8.2543 17.5828 8.37891 17.3035 8.59375 17.1102L12.0312 14.0164C12.332 13.7457 12.7703 13.677 13.1398 13.8402C13.5094 14.0035 13.75 14.373 13.75 14.7812V16.5H14.4375C15.9543 16.5 17.1875 15.2668 17.1875 13.75V6.58711C15.9715 6.05859 15.125 4.84687 15.125 3.4375C15.125 1.53828 16.6633 0 18.5625 0C20.4617 0 22 1.53828 22 3.4375C22 4.84687 21.1535 6.05859 19.9375 6.58711V13.75C19.9375 16.7879 17.4754 19.25 14.4375 19.25H13.75V20.9688ZM19.5938 3.4375C19.5938 3.164 19.4851 2.90169 19.2917 2.7083C19.0983 2.5149 18.836 2.40625 18.5625 2.40625C18.289 2.40625 18.0267 2.5149 17.8333 2.7083C17.6399 2.90169 17.5312 3.164 17.5312 3.4375C17.5312 3.711 17.6399 3.97331 17.8333 4.1667C18.0267 4.3601 18.289 4.46875 18.5625 4.46875C18.836 4.46875 19.0983 4.3601 19.2917 4.1667C19.4851 3.97331 19.5938 3.711 19.5938 3.4375ZM8.25 1.03125C8.25 0.623047 8.49062 0.253516 8.86016 0.0902344C9.22969 -0.0730469 9.66797 -0.00859376 9.96875 0.266406L13.4062 3.36016C13.6254 3.55781 13.7457 3.83281 13.7457 4.125C13.7457 4.41719 13.6211 4.69648 13.4062 4.88984L9.96875 7.98359C9.66797 8.2543 9.22969 8.32305 8.86016 8.15977C8.49062 7.99648 8.25 7.62695 8.25 7.21875V5.5H7.5625C6.0457 5.5 4.8125 6.7332 4.8125 8.25V15.4129C6.02852 15.9414 6.875 17.1531 6.875 18.5625C6.875 20.4617 5.33672 22 3.4375 22C1.53828 22 0 20.4617 0 18.5625C0 17.1531 0.846484 15.9414 2.0625 15.4129V8.25C2.0625 5.21211 4.52461 2.75 7.5625 2.75H8.25V1.03125ZM2.40625 18.5625C2.40625 18.836 2.5149 19.0983 2.7083 19.2917C2.90169 19.4851 3.164 19.5938 3.4375 19.5938C3.711 19.5938 3.97331 19.4851 4.1667 19.2917C4.3601 19.0983 4.46875 18.836 4.46875 18.5625C4.46875 18.289 4.3601 18.0267 4.1667 17.8333C3.97331 17.6399 3.711 17.5312 3.4375 17.5312C3.164 17.5312 2.90169 17.6399 2.7083 17.8333C2.5149 18.0267 2.40625 18.289 2.40625 18.5625Z" fill="#E41A23"/>
</svg>
