<svg width="22" height="22" viewBox="0 0 22 22" fill="none" xmlns="http://www.w3.org/2000/svg">
<path d="M1.375 0.00122771L0 1.37623L3.025 5.6126C3.15235 5.791 3.3205 5.93637 3.51543 6.03659C3.71037 6.13681 3.92644 6.18897 4.14562 6.18873H4.24187C4.42266 6.18859 4.6017 6.2241 4.76874 6.29323C4.93579 6.36236 5.08756 6.46375 5.21537 6.5916L8.8935 10.2697L5.29512 13.919C4.67967 13.7378 4.03046 13.7025 3.399 13.816C2.76754 13.9294 2.1712 14.1885 1.65729 14.5725C1.14337 14.9566 0.726028 15.4551 0.438355 16.0286C0.150681 16.6021 0.000594276 17.2347 0 17.8762C0.000824262 18.4674 0.128705 19.0515 0.374978 19.5889C0.621251 20.1263 0.980163 20.6045 1.4274 20.9911C1.87463 21.3777 2.39973 21.6637 2.96713 21.8296C3.53453 21.9956 4.13097 22.0376 4.71604 21.9529C5.30111 21.8682 5.86113 21.6587 6.35817 21.3387C6.85521 21.0187 7.27766 20.5955 7.59688 20.0979C7.91611 19.6004 8.12466 19.04 8.2084 18.4548C8.29214 17.8696 8.24912 17.2732 8.08225 16.7061L11.7315 13.1077L13.0625 14.4387L12.6431 15.6955C12.5625 15.9377 12.551 16.1976 12.6098 16.446C12.6685 16.6945 12.7953 16.9216 12.9759 17.1021L17.4721 21.5984C17.5995 21.7265 17.751 21.8282 17.9178 21.8975C18.0847 21.9669 18.2636 22.0027 18.4442 22.0027C18.6249 22.0027 18.8038 21.9669 18.9707 21.8975C19.1375 21.8282 19.289 21.7265 19.4164 21.5984L21.5971 19.4176C21.7253 19.2902 21.8269 19.1387 21.8963 18.9719C21.9657 18.8051 22.0014 18.6262 22.0014 18.4455C22.0014 18.2648 21.9657 18.0859 21.8963 17.9191C21.8269 17.7522 21.7253 17.6008 21.5971 17.4734L17.1009 12.9771C16.9204 12.7965 16.6932 12.6698 16.4448 12.611C16.1964 12.5522 15.9365 12.5638 15.6942 12.6444L14.4375 13.0637L13.1175 11.7437L16.8025 8.1096C17.4138 8.27278 18.0544 8.29339 18.675 8.16985C19.2955 8.0463 19.8794 7.78189 20.3815 7.39701C20.8837 7.01213 21.2908 6.51706 21.5714 5.94998C21.852 5.38289 21.9987 4.75894 22 4.12623C22 3.75498 21.9532 3.39885 21.8597 3.05785L18.9172 6.00173L16.5 5.50123L15.9995 3.08535L18.9434 0.141478C18.2431 -0.0468131 17.5055 -0.0471645 16.805 0.140459C16.1046 0.328082 15.4659 0.697049 14.9535 1.21017C14.4411 1.72329 14.073 2.36242 13.8863 3.06315C13.6997 3.76388 13.701 4.50144 13.8902 5.20148L10.2602 8.88373L6.59037 5.2166C6.33249 4.9588 6.18758 4.60912 6.1875 4.24448V4.14685C6.18752 3.9279 6.13525 3.7121 6.03504 3.51743C5.93483 3.32275 5.78958 3.15482 5.61137 3.0276L1.375 0.00122771ZM14.6382 14.6395C14.7021 14.5755 14.778 14.5247 14.8615 14.49C14.945 14.4553 15.0346 14.4375 15.125 14.4375C15.2154 14.4375 15.305 14.4553 15.3885 14.49C15.472 14.5247 15.5479 14.5755 15.6117 14.6395L19.6185 18.6476C19.7437 18.7773 19.813 18.9509 19.8115 19.1312C19.8099 19.3115 19.7376 19.4839 19.6101 19.6114C19.4827 19.7388 19.3102 19.8111 19.13 19.8127C18.9497 19.8143 18.776 19.745 18.6464 19.6197L14.6382 15.613C14.5742 15.5491 14.5234 15.4732 14.4888 15.3897C14.4541 15.3062 14.4363 15.2167 14.4363 15.1262C14.4363 15.0358 14.4541 14.9463 14.4888 14.8627C14.5234 14.7792 14.5742 14.7033 14.6382 14.6395ZM4.125 15.1262L4.77262 15.459L5.5 15.4947L5.89462 16.1066L6.5065 16.5012L6.54225 17.2286L6.875 17.8762L6.54225 18.5239L6.5065 19.2512L5.89462 19.6459L5.5 20.2577L4.77262 20.2935L4.125 20.6262L3.47737 20.2935L2.75 20.2577L2.35537 19.6459L1.7435 19.2512L1.70775 18.5239L1.375 17.8762L1.70775 17.2286L1.7435 16.5012L2.35537 16.1066L2.75 15.4947L3.47737 15.459L4.125 15.1262Z" fill="#E41A23"/>
</svg>
