<svg width="21" height="20" viewBox="0 0 21 20" fill="none" xmlns="http://www.w3.org/2000/svg">
<path d="M15.1296 7.79617C15.6667 7.259 15.6667 6.3955 15.6667 4.66667C15.6667 2.93783 15.6667 2.07433 15.1296 1.53717M15.1296 7.79617C14.5924 8.33333 13.7289 8.33333 12.0001 8.33333H8.33341C6.60458 8.33333 5.74108 8.33333 5.20391 7.79617M15.1296 1.53717C14.5924 1 13.7289 1 12.0001 1H8.33341C6.60458 1 5.74108 1 5.20391 1.53717M5.20391 1.53717C4.66675 2.07433 4.66675 2.93783 4.66675 4.66667C4.66675 6.3955 4.66675 7.259 5.20391 7.79617M11.0834 4.66667C11.0834 4.90978 10.9868 5.14294 10.8149 5.31485C10.643 5.48676 10.4099 5.58333 10.1667 5.58333C9.92363 5.58333 9.69048 5.48676 9.51857 5.31485C9.34666 5.14294 9.25008 4.90978 9.25008 4.66667C9.25008 4.42355 9.34666 4.19039 9.51857 4.01849C9.69048 3.84658 9.92363 3.75 10.1667 3.75C10.4099 3.75 10.643 3.84658 10.8149 4.01849C10.9868 4.19039 11.0834 4.42355 11.0834 4.66667Z" stroke="#E41A23" stroke-width="1.5"/>
<path d="M15.6667 3.75C14.9373 3.75 14.2378 3.46027 13.7221 2.94454C13.2064 2.42882 12.9167 1.72935 12.9167 1M15.6667 5.58333C14.9373 5.58333 14.2378 5.87306 13.7221 6.38879C13.2064 6.90451 12.9167 7.60399 12.9167 8.33333M4.66667 3.75C5.39601 3.75 6.09549 3.46027 6.61121 2.94454C7.12694 2.42882 7.41667 1.72935 7.41667 1M4.66667 5.58333C5.39601 5.58333 6.09549 5.87306 6.61121 6.38879C7.12694 6.90451 7.41667 7.60399 7.41667 8.33333M3.75 16.939H5.82167C6.7475 16.939 7.68525 17.0362 8.58633 17.2213C10.1952 17.5508 11.8503 17.5875 13.4722 17.3295C14.2678 17.2012 15.0488 17.0041 15.7565 16.6631C16.3945 16.3542 17.1764 15.9206 17.7017 15.4338C18.226 14.948 18.7723 14.1532 19.1592 13.5317C19.4928 12.9982 19.3315 12.3447 18.8053 11.9478C18.5095 11.7331 18.1533 11.6175 17.7878 11.6175C17.4223 11.6175 17.0662 11.7331 16.7703 11.9478L15.1139 13.199C14.4722 13.6848 13.771 14.1312 12.9359 14.2642C12.8351 14.2801 12.7297 14.2944 12.6197 14.3073M12.6197 14.3073L12.5188 14.3182M12.6197 14.3073C12.7664 14.2675 12.9009 14.1919 13.0111 14.0873C13.1494 13.9679 13.2624 13.822 13.3434 13.6582C13.4243 13.4944 13.4716 13.316 13.4824 13.1336C13.4931 12.9512 13.4672 12.7685 13.4061 12.5963C13.345 12.4241 13.2499 12.2659 13.1266 12.1311C13.0071 11.9985 12.868 11.885 12.7141 11.7947C10.1502 10.2648 6.15992 11.4298 3.75 13.1394M12.6197 14.3073C12.5866 14.3146 12.5527 14.3183 12.5188 14.3182M12.5188 14.3182C11.966 14.3737 11.4091 14.3749 10.856 14.3219" stroke="#E41A23" stroke-width="1.5" stroke-linecap="round"/>
<path d="M3.75 12.4584C3.75 11.699 3.13439 11.0834 2.375 11.0834C1.61561 11.0834 1 11.699 1 12.4584V17.0417C1 17.8011 1.61561 18.4167 2.375 18.4167C3.13439 18.4167 3.75 17.8011 3.75 17.0417V12.4584Z" stroke="#E41A23" stroke-width="1.5"/>
</svg>
