<svg width="21" height="21" viewBox="0 0 21 21" fill="none" xmlns="http://www.w3.org/2000/svg">
<path d="M7.41667 1H1.91667C1.67355 1 1.44039 1.09658 1.26849 1.26849C1.09658 1.44039 1 1.67355 1 1.91667V7.41667C1 7.65978 1.09658 7.89294 1.26849 8.06485C1.44039 8.23676 1.67355 8.33333 1.91667 8.33333H7.41667C7.65978 8.33333 7.89294 8.23676 8.06485 8.06485C8.23676 7.89294 8.33333 7.65978 8.33333 7.41667V1.91667C8.33333 1.67355 8.23676 1.44039 8.06485 1.26849C7.89294 1.09658 7.65978 1 7.41667 1ZM7.41667 12H1.91667C1.67355 12 1.44039 12.0966 1.26849 12.2685C1.09658 12.4404 1 12.6736 1 12.9167V18.4167C1 18.6598 1.09658 18.8929 1.26849 19.0648C1.44039 19.2368 1.67355 19.3333 1.91667 19.3333H7.41667C7.65978 19.3333 7.89294 19.2368 8.06485 19.0648C8.23676 18.8929 8.33333 18.6598 8.33333 18.4167V12.9167C8.33333 12.6736 8.23676 12.4404 8.06485 12.2685C7.89294 12.0966 7.65978 12 7.41667 12ZM18.4167 1H12.9167C12.6736 1 12.4404 1.09658 12.2685 1.26849C12.0966 1.44039 12 1.67355 12 1.91667V7.41667C12 7.65978 12.0966 7.89294 12.2685 8.06485C12.4404 8.23676 12.6736 8.33333 12.9167 8.33333H18.4167C18.6598 8.33333 18.8929 8.23676 19.0648 8.06485C19.2368 7.89294 19.3333 7.65978 19.3333 7.41667V1.91667C19.3333 1.67355 19.2368 1.44039 19.0648 1.26849C18.8929 1.09658 18.6598 1 18.4167 1Z" stroke="#E41A23" stroke-width="2" stroke-linejoin="round"/>
<path d="M12 12H19.3333M15.6667 15.6667H19.3333M12 19.3333H19.3333" stroke="#E41A23" stroke-width="2" stroke-linecap="round" stroke-linejoin="round"/>
</svg>
