<svg width="17" height="20" viewBox="0 0 17 20" fill="none" xmlns="http://www.w3.org/2000/svg">
<path d="M11.9167 9.19123e-08C12.3792 -0.000146281 12.8247 0.174539 13.1638 0.489039C13.503 0.803538 13.7107 1.23461 13.7454 1.69583L13.75 1.83333V6.41667H15.125C15.4668 6.41668 15.7964 6.54401 16.0494 6.77382C16.3024 7.00362 16.4608 7.31944 16.4936 7.65967L16.5 7.79167V14.6667C16.5 15.3681 16.232 16.0431 15.7508 16.5534C15.2696 17.0638 14.6116 17.3709 13.9113 17.4121L13.75 17.4167H1.83333C1.37081 17.4168 0.925314 17.2421 0.586164 16.9276C0.247015 16.6131 0.0392731 16.1821 0.00458353 15.7208L9.19124e-08 15.5833V1.83333C-0.000146281 1.3708 0.174539 0.925314 0.489039 0.586164C0.803539 0.247015 1.23461 0.0392731 1.69583 0.00458353L1.83333 9.19123e-08H11.9167ZM14.6667 8.25H13.75V15.5833C13.9931 15.5833 14.2263 15.4868 14.3982 15.3148C14.5701 15.1429 14.6667 14.9098 14.6667 14.6667V8.25ZM11.9167 1.83333H1.83333V15.5833H11.9167V1.83333ZM7.33333 9.16667C7.56697 9.16693 7.7917 9.25639 7.96159 9.41678C8.13148 9.57717 8.23372 9.79637 8.24741 10.0296C8.2611 10.2628 8.18522 10.4925 8.03526 10.6717C7.8853 10.8508 7.67259 10.966 7.44058 10.9936L7.33333 11H4.58333C4.34969 10.9997 4.12497 10.9103 3.95508 10.7499C3.78519 10.5895 3.68295 10.3703 3.66926 10.1371C3.65557 9.90382 3.73145 9.67415 3.88141 9.49499C4.03137 9.31582 4.24408 9.20068 4.47608 9.17308L4.58333 9.16667H7.33333ZM9.16667 4.58333C9.40978 4.58333 9.64294 4.67991 9.81485 4.85182C9.98676 5.02373 10.0833 5.25688 10.0833 5.5C10.0833 5.74311 9.98676 5.97627 9.81485 6.14818C9.64294 6.32009 9.40978 6.41667 9.16667 6.41667H4.58333C4.34022 6.41667 4.10706 6.32009 3.93515 6.14818C3.76324 5.97627 3.66667 5.74311 3.66667 5.5C3.66667 5.25688 3.76324 5.02373 3.93515 4.85182C4.10706 4.67991 4.34022 4.58333 4.58333 4.58333H9.16667Z" fill="#E41A23"/>
</svg>
