<svg width="19" height="19" viewBox="0 0 19 19" fill="none" xmlns="http://www.w3.org/2000/svg">
<path fill-rule="evenodd" clip-rule="evenodd" d="M12.9588 2.50089L14.6363 4.17839C17.1012 6.64423 18.3332 7.87622 18.3332 9.40706C18.3332 10.9388 17.1012 12.1708 14.6363 14.6357C12.1705 17.1016 10.9385 18.3336 9.40671 18.3336C7.87588 18.3336 6.64296 17.1016 4.17804 14.6366L2.50054 12.9591C1.08429 11.542 0.375711 10.8343 0.112627 9.91489C-0.151373 8.99547 0.0741274 8.01923 0.525127 6.06764L0.784544 4.94198C1.16313 3.29931 1.35288 2.47798 1.91479 1.91514C2.47671 1.35231 3.29896 1.16347 4.94163 0.784892L6.06729 0.524558C8.01979 0.074475 8.99513 -0.151025 9.91454 0.112058C10.834 0.376058 11.5425 1.08464 12.9588 2.50089ZM8.38371 11.3009C7.76679 10.6849 7.77138 9.79939 8.14079 9.09814C8.04934 8.96604 8.00704 8.80609 8.02124 8.64605C8.03543 8.48601 8.10523 8.336 8.21851 8.22207C8.3318 8.10813 8.4814 8.03747 8.64136 8.02235C8.80131 8.00723 8.96151 8.04861 9.09413 8.13931C9.40579 7.97431 9.74771 7.88631 10.0887 7.88998C10.271 7.89168 10.4452 7.96574 10.573 8.09588C10.7007 8.22601 10.7715 8.40156 10.7698 8.58389C10.7681 8.76623 10.694 8.94042 10.5639 9.06815C10.4338 9.19588 10.2582 9.26668 10.0759 9.26498C9.86362 9.27282 9.66303 9.36406 9.51763 9.51889C9.16288 9.87364 9.25546 10.2293 9.35538 10.3292C9.45621 10.4291 9.81096 10.5217 10.1657 10.167C10.8844 9.44831 12.1255 9.20997 12.9203 10.0047C13.5372 10.6216 13.5326 11.5071 13.1632 12.2084C13.2541 12.3405 13.2959 12.5003 13.2815 12.66C13.267 12.8197 13.1972 12.9693 13.0841 13.083C12.9709 13.1966 12.8216 13.2672 12.662 13.2824C12.5024 13.2976 12.3424 13.2566 12.2099 13.1663C11.7985 13.392 11.3214 13.4672 10.8605 13.379C10.6819 13.3423 10.5251 13.2361 10.4247 13.0838C10.3243 12.9315 10.2885 12.7455 10.3252 12.5668C10.3619 12.3881 10.4681 12.2313 10.6204 12.1309C10.7727 12.0305 10.9587 11.9948 11.1374 12.0315C11.2996 12.0654 11.5618 12.0122 11.7864 11.7876C12.1411 11.432 12.0485 11.0772 11.9486 10.9773C11.8478 10.8774 11.493 10.7848 11.1383 11.1396C10.4196 11.8582 9.17846 12.0966 8.38371 11.3009ZM7.35154 7.60214C7.52176 7.43187 7.65677 7.22973 7.74887 7.00728C7.84096 6.78483 7.88834 6.54641 7.8883 6.30565C7.88826 6.06489 7.84079 5.82649 7.74862 5.60407C7.65644 5.38165 7.52136 5.17957 7.35109 5.00935C7.18081 4.83914 6.97868 4.70412 6.75622 4.61203C6.53377 4.51993 6.29536 4.47255 6.0546 4.47259C5.81383 4.47264 5.57544 4.5201 5.35302 4.61228C5.1306 4.70445 4.92851 4.83953 4.75829 5.00981C4.41453 5.3537 4.22145 5.82006 4.22154 6.3063C4.22162 6.79254 4.41487 7.25883 4.75875 7.6026C5.10264 7.94636 5.569 8.13944 6.05524 8.13936C6.54149 8.13927 7.00778 7.94603 7.35154 7.60214Z" fill="#E41A23"/>
</svg>
