<svg width="13" height="19" viewBox="0 0 13 19" fill="none" xmlns="http://www.w3.org/2000/svg">
<path d="M6.41667 8.70833C5.80888 8.70833 5.22598 8.46689 4.79621 8.03712C4.36644 7.60735 4.125 7.02445 4.125 6.41667C4.125 5.80888 4.36644 5.22598 4.79621 4.79621C5.22598 4.36644 5.80888 4.125 6.41667 4.125C7.02445 4.125 7.60735 4.36644 8.03712 4.79621C8.46689 5.22598 8.70833 5.80888 8.70833 6.41667C8.70833 6.71761 8.64906 7.01561 8.53389 7.29365C8.41872 7.57169 8.24992 7.82432 8.03712 8.03712C7.82432 8.24992 7.57169 8.41872 7.29365 8.53389C7.01561 8.64906 6.71761 8.70833 6.41667 8.70833ZM6.41667 0C4.71486 0 3.08276 0.67604 1.8794 1.8794C0.67604 3.08276 0 4.71486 0 6.41667C0 11.2292 6.41667 18.3333 6.41667 18.3333C6.41667 18.3333 12.8333 11.2292 12.8333 6.41667C12.8333 4.71486 12.1573 3.08276 10.9539 1.8794C9.75058 0.67604 8.11847 0 6.41667 0Z" fill="#E41A23"/>
</svg>
