<svg width="20" height="16" viewBox="0 0 20 16" fill="none" xmlns="http://www.w3.org/2000/svg">
<path d="M5.5 11.3438C5.5 11.5477 5.43952 11.7471 5.32621 11.9167C5.21289 12.0863 5.05183 12.2184 4.86339 12.2965C4.67496 12.3746 4.46761 12.395 4.26756 12.3552C4.06752 12.3154 3.88377 12.2172 3.73955 12.073C3.59533 11.9287 3.49711 11.745 3.45732 11.5449C3.41753 11.3449 3.43795 11.1375 3.516 10.9491C3.59405 10.7607 3.72623 10.5996 3.89582 10.4863C4.06541 10.373 4.26479 10.3125 4.46875 10.3125C4.74226 10.3125 5.00456 10.4211 5.19796 10.6145C5.39135 10.8079 5.5 11.0702 5.5 11.3438ZM8.9375 11.3438C8.9375 12.2276 8.67541 13.0916 8.18438 13.8265C7.69335 14.5613 6.99543 15.1341 6.17887 15.4723C5.36231 15.8106 4.46379 15.8991 3.59694 15.7266C2.73009 15.5542 1.93383 15.1286 1.30887 14.5036C0.683903 13.8787 0.258296 13.0824 0.0858678 12.2156C-0.0865599 11.3487 0.00193624 10.4502 0.340165 9.63363C0.678394 8.81708 1.25117 8.11915 1.98605 7.62812C2.72093 7.13709 3.58492 6.875 4.46875 6.875C5.65352 6.87636 6.78937 7.34762 7.62713 8.18537C8.46489 9.02313 8.93614 10.159 8.9375 11.3438ZM6.875 11.3438C6.875 10.8678 6.73388 10.4026 6.46948 10.0069C6.20507 9.6112 5.82927 9.30279 5.38958 9.12067C4.9499 8.93854 4.46608 8.89089 3.99932 8.98374C3.53255 9.07658 3.1038 9.30575 2.76728 9.64227C2.43076 9.97879 2.20158 10.4075 2.10874 10.8743C2.01589 11.3411 2.06354 11.8249 2.24567 12.2646C2.42779 12.7043 2.73621 13.0801 3.13191 13.3445C3.52762 13.6089 3.99284 13.75 4.46875 13.75C5.10693 13.75 5.71897 13.4965 6.17023 13.0452C6.62149 12.594 6.875 11.9819 6.875 11.3438ZM19.9375 12.7188C19.9361 13.5085 19.6328 14.2679 19.0896 14.8412C18.5464 15.4145 17.8045 15.7584 17.0159 15.8023C16.2274 15.8463 15.4518 15.587 14.8483 15.0776C14.2448 14.5682 13.8589 13.8472 13.7698 13.0625H11C10.8177 13.0625 10.6428 12.9901 10.5139 12.8611C10.3849 12.7322 10.3125 12.5573 10.3125 12.375V11.3438C10.3109 9.79438 9.69472 8.30892 8.59915 7.21335C7.50358 6.11778 6.01812 5.50159 4.46875 5.5H2.0625C1.88017 5.5 1.7053 5.42757 1.57637 5.29864C1.44744 5.1697 1.375 4.99484 1.375 4.8125C1.375 4.63016 1.44744 4.4553 1.57637 4.32636C1.7053 4.19743 1.88017 4.125 2.0625 4.125H2.75V1.375H2.0625C1.88017 1.375 1.7053 1.30257 1.57637 1.17364C1.44744 1.0447 1.375 0.869836 1.375 0.6875C1.375 0.505164 1.44744 0.330295 1.57637 0.201364C1.7053 0.072433 1.88017 0 2.0625 0H12.375C12.5573 0 12.7322 0.072433 12.8611 0.201364C12.9901 0.330295 13.0625 0.505164 13.0625 0.6875C13.0625 0.869836 12.9901 1.0447 12.8611 1.17364C12.7322 1.30257 12.5573 1.375 12.375 1.375H11.6875V4.97406L13.75 5.53266V2.75C13.75 2.56766 13.8224 2.3928 13.9514 2.26386C14.0803 2.13493 14.2552 2.0625 14.4375 2.0625C14.6198 2.0625 14.7947 2.13493 14.9236 2.26386C15.0526 2.3928 15.125 2.56766 15.125 2.75V5.90477L18.2523 6.75211L18.2703 6.75727C18.5549 6.8411 18.8045 7.01536 18.9813 7.25368C19.1581 7.492 19.2524 7.78141 19.25 8.07812V10.7817C19.6945 11.3295 19.9372 12.0134 19.9375 12.7188ZM18.2188 12.7188C18.2188 12.4468 18.1381 12.181 17.987 11.9548C17.8359 11.7287 17.6212 11.5525 17.3699 11.4484C17.1187 11.3443 16.8422 11.3171 16.5755 11.3702C16.3088 11.4232 16.0638 11.5542 15.8715 11.7465C15.6792 11.9388 15.5482 12.1838 15.4952 12.4505C15.4421 12.7172 15.4693 12.9937 15.5734 13.2449C15.6775 13.4962 15.8537 13.7109 16.0798 13.862C16.306 14.0131 16.5718 14.0938 16.8438 14.0938C17.2084 14.0938 17.5582 13.9489 17.816 13.691C18.0739 13.4332 18.2188 13.0834 18.2188 12.7188Z" fill="#E41A23"/>
</svg>
